<?xml version="1.0" standalone="no"?>
<!DOCTYPE svg PUBLIC "-//W3C//DTD SVG 20010904//EN"
 "http://www.w3.org/TR/2001/REC-SVG-20010904/DTD/svg10.dtd">
<svg version="1.0" xmlns="http://www.w3.org/2000/svg"
 width="512.000000pt" height="512.000000pt" viewBox="0 0 512.000000 512.000000"
 preserveAspectRatio="xMidYMid meet">
<metadata>
Created by potrace 1.11, written by Peter Selinger 2001-2013
</metadata>
<g transform="translate(0.000000,512.000000) scale(0.100000,-0.100000)"
fill="#000000" stroke="none">
<path d="M985 3736 c-219 -43 -402 -173 -483 -344 -66 -139 -54 -302 33 -446
83 -138 214 -253 669 -584 182 -133 246 -212 246 -303 0 -60 -27 -107 -85
-146 -180 -125 -426 -52 -580 172 -21 30 -39 55 -41 55 -1 0 -93 -48 -203
-106 l-201 -106 22 -40 c39 -68 144 -193 210 -247 78 -65 217 -135 323 -162
100 -26 317 -36 424 -20 380 59 626 316 608 636 -5 106 -33 197 -84 275 -70
107 -173 198 -488 435 -170 128 -331 254 -357 279 -93 93 -83 181 27 239 31
16 59 21 121 22 73 0 87 -3 157 -38 56 -28 99 -60 153 -113 l75 -74 170 131
c93 72 172 135 175 141 7 11 -91 104 -185 176 -73 56 -239 137 -321 157 -91
22 -297 28 -385 11z"/>
<path d="M2560 3695 c0 -8 -370 -2149 -375 -2173 l-5 -22 207 2 208 3 116 671
c64 369 118 676 120 682 2 7 107 -296 232 -673 l229 -685 187 0 187 0 229 684
c127 376 232 683 234 681 4 -4 231 -1332 231 -1352 0 -10 48 -13 206 -13 l205
0 -6 43 c-4 23 -86 517 -183 1097 l-177 1055 -206 3 -206 2 -253 -755 c-139
-415 -256 -755 -259 -755 -4 0 -119 340 -256 755 l-250 755 -207 0 c-115 0
-208 -2 -208 -5z"/>
</g>
</svg>
